<svg id="Layer_3" data-name="Layer 3" xmlns="http://www.w3.org/2000/svg" viewBox="0 0 260 260"><defs><style>.cls-1{fill:#003b71;}.cls-2{fill:#ad8400;}</style></defs><path class="cls-1" d="M29,245.13a88.38,88.38,0,0,0,22.77,8.48,127,127,0,0,0,27.95,2.77,119.83,119.83,0,0,0,21.15-1.81,72.85,72.85,0,0,0,18.23-5.68A50.14,50.14,0,0,0,133.35,239a41.05,41.05,0,0,0,9.32-14.54,54.13,54.13,0,0,0,2.24-10.53,132.87,132.87,0,0,0,.79-16v-176h28.05V4.77h4.49V25.55H150.19V198.23a143.61,143.61,0,0,1-.79,16.54,50,50,0,0,1-2.58,11.39A44.13,44.13,0,0,1,137.17,241a54.13,54.13,0,0,1-14.81,10.58,76.87,76.87,0,0,1-19,6.29,111.8,111.8,0,0,1-22.1,2.1,144.57,144.57,0,0,1-17-.91,91.31,91.31,0,0,1-14.09-2.71,57.27,57.27,0,0,1-11.61-4.63A51.88,51.88,0,0,1,29,245.13Z"/><path class="cls-1" d="M52.9,213.67a21.19,21.19,0,0,0,3.7,4.91,34.52,34.52,0,0,0,4.88,4,37,37,0,0,0,5.44,3.1,38.31,38.31,0,0,0,5.5,2.05,37,37,0,0,1-14.81-4.24,23.72,23.72,0,0,1-9-8.53Z"/><rect class="cls-1" x="65.35" y="21.92" width="42.08" height="3.62"/><polygon class="cls-2" points="0 154.69 30.3 154.69 30.3 66.51 0 66.51 0 51.26 72.94 51.26 125.57 130.38 174.49 51.26 247.43 51.26 247.43 66.51 217.36 66.51 217.36 154.69 247.43 154.69 247.43 169.94 166.08 169.94 166.08 154.69 191.89 154.69 191.89 65.65 131.63 163.17 118.05 163.17 55.77 68.7 55.77 154.69 81.36 154.69 81.36 169.94 0 169.94 0 154.69"/><rect class="cls-1" x="6.73" y="73.18" width="18.85" height="3.62"/><polygon class="cls-1" points="89.44 176.61 89.44 160.03 93.92 160.03 93.92 180.23 6.73 180.23 6.73 176.61 89.44 176.61"/><polygon class="cls-1" points="63.63 90.63 68.11 97.4 68.11 148.97 63.63 148.97 63.63 90.63"/><polygon class="cls-1" points="85.62 56.12 90.56 56.12 129.72 114.46 127.14 118.46 85.62 56.12"/><polygon class="cls-1" points="147.59 152.6 186.5 89.48 186.5 97.4 148.34 159.66 147.59 152.6"/><polygon class="cls-1" points="255.51 176.61 255.51 160.03 260 160.03 260 180.23 172.81 180.23 172.81 176.61 255.51 176.61"/><polygon class="cls-1" points="225.21 73.18 255.51 73.18 255.51 56.03 260 56.03 260 76.81 229.7 76.81 229.7 148.97 225.21 148.97 225.21 73.18"/><path class="cls-2" d="M38,210.91a29.25,29.25,0,0,0,14.65,17.82q10.83,5.73,27.88,5.72a56.35,56.35,0,0,0,10.33-.9,35.14,35.14,0,0,0,8.69-2.77,22.64,22.64,0,0,0,6.62-4.72,18.08,18.08,0,0,0,4.1-6.76,41.18,41.18,0,0,0,1.46-8.39q.45-5.15.45-13.73V15.25H58.62V0h107V15.25h-28V197.94a119.48,119.48,0,0,1-.79,14.83A43.06,43.06,0,0,1,134.48,223a35.43,35.43,0,0,1-7.63,12.16,41,41,0,0,1-11.95,8.43,63.14,63.14,0,0,1-15.94,5,109.2,109.2,0,0,1-19.47,1.62,130.86,130.86,0,0,1-25-2.1,65,65,0,0,1-18.29-6.19,41.18,41.18,0,0,1-12.57-10.11,46.36,46.36,0,0,1-7.74-13.72Z"/></svg>