<svg id="Layer_3" data-name="Layer 3" xmlns="http://www.w3.org/2000/svg" viewBox="0 0 576 165.3"><defs><style>.cls-1{fill:#003b71}.cls-2{fill:#ad8400}</style></defs><path class="cls-1" d="M262.4 117.84a27.12 27.12 0 0 0 7 2.59 39.22 39.22 0 0 0 8.54.84 36.26 36.26 0 0 0 6.47-.55A22.64 22.64 0 0 0 290 119a15.4 15.4 0 0 0 4.35-3 12.51 12.51 0 0 0 2.85-4.45 16.15 16.15 0 0 0 .69-3.22 40.32 40.32 0 0 0 .24-4.88V49.62h8.57v-5.25h1.3v6.35h-8.58v52.78a43.77 43.77 0 0 1-.24 5.06 15.16 15.16 0 0 1-.79 3.48 13.54 13.54 0 0 1-2.95 4.54 16.64 16.64 0 0 1-4.53 3.24 24 24 0 0 1-5.8 1.92 34 34 0 0 1-6.75.64 43.4 43.4 0 0 1-5.2-.28 27.25 27.25 0 0 1-4.31-.83 17.41 17.41 0 0 1-3.55-1.41 16.21 16.21 0 0 1-2.9-2.02Z"/><path class="cls-1" d="M269.71 108.22a6.22 6.22 0 0 0 1.13 1.5 10.43 10.43 0 0 0 1.49 1.24 11.15 11.15 0 0 0 3.34 1.57 11.2 11.2 0 0 1-4.52-1.29 7.22 7.22 0 0 1-2.75-2.61ZM273.51 49.62h12.86v1.11h-12.86z"/><path class="cls-2" d="M253.53 90.19h9.27V63.24h-9.27v-4.66h22.3l16.09 24.18 14.96-24.18h22.3v4.66h-9.19v26.95h9.19v4.67h-24.87v-4.67h7.89V62.98l-18.43 29.81h-4.15l-19.04-28.88v26.28h7.83v4.67h-24.88v-4.67z"/><path class="cls-1" d="M255.59 65.28h5.76v1.11h-5.76zM280.88 96.89v-5.06h1.37V98h-26.66v-1.11h25.29zM272.99 70.61l1.37 2.07v15.76h-1.37V70.61zM279.71 60.07h1.51l11.97 17.83-.79 1.22-12.69-19.05zM298.65 89.56l11.9-19.29v2.41l-11.67 19.03-.23-2.15zM331.65 96.89v-5.06h1.37V98h-26.65v-1.11h25.28zM322.39 65.28h9.26v-5.24h1.37v6.35h-9.26v22.05h-1.37V65.28z"/><path class="cls-2" d="M265.14 107.38a8.94 8.94 0 0 0 4.48 5.44 18.17 18.17 0 0 0 8.53 1.75 17.44 17.44 0 0 0 3.15-.27 10.92 10.92 0 0 0 2.66-.85 7 7 0 0 0 2-1.44 5.6 5.6 0 0 0 1.26-2.07 12.78 12.78 0 0 0 .44-2.56c.09-1 .14-2.45.14-4.2v-55.6h-16.34v-4.67h32.72v4.67h-8.57v55.83a36.85 36.85 0 0 1-.24 4.53 13.29 13.29 0 0 1-.72 3.14 10.85 10.85 0 0 1-2.34 3.71 12.38 12.38 0 0 1-3.65 2.58 19.32 19.32 0 0 1-4.87 1.51 32.45 32.45 0 0 1-6 .5 39.83 39.83 0 0 1-7.65-.64 20.21 20.21 0 0 1-5.6-1.89 12.87 12.87 0 0 1-3.84-3.09 14.41 14.41 0 0 1-2.37-4.2Z"/><path d="M546.47 97.51 576 82.65l-29.53-14.87-27.32 13.55h-34.93l-55-27.68L412.35 62 288.63.3l-.58-.3-123.87 62.29-17.43-8.64-55 27.68h-34.9L29.53 67.78 0 82.65l29.53 14.86L56.85 84h34.92l55 27.68 17.46-8.68 123.64 62 .59.3 123.94-62 16.85 8.36 55-27.68h34.93Zm0-26.78 23.67 11.92-23.68 11.92-24-11.92ZM429.24 58.08l46.18 23.25H451l-34.21-17.08ZM162.46 81.33h-30.27L162.71 66 178 73.54Zm0 2.64L178 91.75l-15.21 7.54L132.21 84Zm9.14-1.33 12.27-6.17 12.45 6.18-12.43 6.16Zm33.63 0-16.94-8.4L288.2 24l100.1 50-17.53 8.69 17.55 8.7-99.81 49.94L188.32 91Zm174.45 0 13.06-6.48 13 6.48-13 6.48Zm35.2 1.36h30.24l-31.25 15.6-15.19-7.53Zm0-2.64-16.21-8.09 15.15-7.52 31.28 15.58ZM288.05 3l121.33 60.5-15.16 7.5-106-52.91-105.84 53.22-15.25-7.55ZM146.76 58.08l13 6.44-33.43 16.81h-25.75ZM29.54 94.57 5.87 82.65l23.67-11.92 24 11.92Zm117.22 12.65L100.58 84h25.74l33.47 16.79Zm141.7 55.12-121.27-60.83L182.4 94l106.11 53.22 105.74-52.9 15.18 7.53Zm140.78-55.12-12.41-6.15L451 84h24.4Z" style="fill:#0f2d52"/></svg>